<svg xmlns="http://www.w3.org/2000/svg" viewBox="0 0 100 100">
  <defs>
    <linearGradient id="grad" x1="0%" y1="0%" x2="100%" y2="100%">
      <stop offset="0%" style="stop-color:#6366f1;stop-opacity:1" />
      <stop offset="100%" style="stop-color:#a855f7;stop-opacity:1" />
    </linearGradient>
  </defs>
  
  <!-- Fondo circular -->
  <circle cx="50" cy="50" r="48" fill="url(#grad)"/>
  
  <!-- Icono de pin/ubicación -->
  <path d="M 50 20 C 40 20 32 28 32 38 C 32 50 50 70 50 70 C 50 70 68 50 68 38 C 68 28 60 20 50 20 Z M 50 44 C 46.7 44 44 41.3 44 38 C 44 34.7 46.7 32 50 32 C 53.3 32 56 34.7 56 38 C 56 41.3 53.3 44 50 44 Z" fill="white"/>
  
  <!-- Letra "S" pequeña -->
  <text x="50" y="88" font-family="Arial, sans-serif" font-size="24" font-weight="bold" fill="white" text-anchor="middle">S</text>
</svg>
